<?xml version="1.0" encoding="UTF-8" standalone="no"?>
<!-- Uploaded to: SVG Repo, www.svgrepo.com, Generator: SVG Repo Mixer Tools -->

<svg
   width="800px"
   height="800px"
   viewBox="0 0 24 24"
   fill="none"
   version="1.1"
   id="svg1"
   sodipodi:docname="file.svg"
   inkscape:version="1.4.3 (0d15f75042, 2025-12-25)"
   xmlns:inkscape="http://www.inkscape.org/namespaces/inkscape"
   xmlns:sodipodi="http://sodipodi.sourceforge.net/DTD/sodipodi-0.dtd"
   xmlns="http://www.w3.org/2000/svg"
   xmlns:svg="http://www.w3.org/2000/svg">
  <defs
     id="defs1" />
  <sodipodi:namedview
     id="namedview1"
     pagecolor="#ffffff"
     bordercolor="#000000"
     borderopacity="0.25"
     inkscape:showpageshadow="2"
     inkscape:pageopacity="0.0"
     inkscape:pagecheckerboard="0"
     inkscape:deskcolor="#d1d1d1"
     inkscape:zoom="0.96"
     inkscape:cx="399.47917"
     inkscape:cy="400"
     inkscape:window-width="1707"
     inkscape:window-height="990"
     inkscape:window-x="0"
     inkscape:window-y="0"
     inkscape:window-maximized="1"
     inkscape:current-layer="svg1" />
  <path
     d="M 13,3 H 8.2 C 7.0799,3 6.51984,3 6.09202,3.21799 5.71569,3.40973 5.40973,3.71569 5.21799,4.09202 5,4.51984 5,5.0799 5,6.2 v 11.6 c 0,1.1201 0,1.6802 0.21799,2.108 0.19174,0.3763 0.4977,0.6823 0.87403,0.874 C 6.51984,21 7.0799,21 8.2,21 h 7.6 c 1.1201,0 1.6802,0 2.108,-0.218 0.3763,-0.1917 0.6823,-0.4977 0.874,-0.874 C 19,19.4802 19,18.9201 19,17.8 V 9 M 13,3 19,9 M 13,3 v 4.4 c 0,0.56005 0,0.84008 0.109,1.05399 0.0959,0.18816 0.2488,0.34114 0.437,0.43702 C 13.7599,9 14.0399,9 14.6,9 H 19"
     stroke="#000000"
     stroke-width="2"
     stroke-linecap="round"
     stroke-linejoin="round"
     id="path1"
     sodipodi:nodetypes="csccssccssccsccccsccsc" />
</svg>
